<svg width="22" height="20" viewBox="0 0 22 20" fill="none" xmlns="http://www.w3.org/2000/svg">
<path d="M11.931 0C9.7326 0.0106997 7.59986 0.750372 5.86692 2.10313C4.13398 3.45589 2.89875 5.3453 2.35476 7.47535L1.68932 6.469C1.62632 6.36364 1.54263 6.27213 1.44331 6.19999C1.34399 6.12785 1.23108 6.07657 1.11141 6.04925C0.99173 6.02193 0.867759 6.01913 0.74697 6.04102C0.626181 6.06291 0.511077 6.10904 0.408598 6.17662C0.30612 6.2442 0.21839 6.33184 0.1507 6.43425C0.0830096 6.53665 0.0367609 6.65171 0.0147428 6.77247C-0.00727534 6.89324 -0.0046067 7.01721 0.0225878 7.13692C0.0497822 7.25663 0.100939 7.36958 0.172973 7.46898L2.17294 10.4998C2.31187 10.6943 2.51669 10.8316 2.7493 10.8862C2.98681 10.9333 3.23334 10.886 3.43656 10.7544L6.43652 8.73351C6.53995 8.66892 6.62934 8.58417 6.69934 8.48433C6.76935 8.38448 6.81856 8.27156 6.84403 8.15231C6.8695 8.03305 6.87071 7.90989 6.8476 7.79015C6.82449 7.67041 6.77753 7.55655 6.7095 7.45534C6.64148 7.35413 6.55379 7.26763 6.45165 7.20101C6.34951 7.13439 6.23501 7.089 6.11496 7.06754C5.99492 7.04608 5.87179 7.04899 5.75289 7.07611C5.634 7.10322 5.52177 7.15397 5.4229 7.22535L4.05837 8.14534C4.42153 6.67117 5.19175 5.32876 6.28114 4.27127C7.37054 3.21378 8.73524 2.4838 10.2196 2.16462C11.7039 1.84543 13.248 1.94989 14.6758 2.46608C16.1036 2.98226 17.3576 3.88939 18.2946 5.08397C19.2317 6.27854 19.8141 7.71245 19.9754 9.2221C20.1367 10.7317 19.8704 12.2563 19.2069 13.6219C18.5434 14.9875 17.5094 16.1391 16.2229 16.9453C14.9364 17.7516 13.4492 18.1799 11.931 18.1816C10.6295 18.178 9.34809 17.8603 8.19572 17.2554C7.04334 16.6505 6.05407 15.7763 5.31199 14.7071C5.24553 14.605 5.15924 14.5173 5.05825 14.4493C4.95725 14.3812 4.84361 14.3342 4.72407 14.3109C4.60453 14.2876 4.48153 14.2885 4.36238 14.3137C4.24322 14.3389 4.13033 14.3877 4.03042 14.4573C3.9305 14.527 3.8456 14.616 3.78074 14.7191C3.71589 14.8222 3.67241 14.9372 3.65289 15.0574C3.63337 15.1776 3.6382 15.3005 3.66709 15.4189C3.69599 15.5372 3.74836 15.6485 3.8211 15.7461C5.02751 17.4854 6.76 18.7917 8.76395 19.4732C10.7679 20.1548 12.9376 20.1755 14.9542 19.5324C16.9708 18.8893 18.728 17.6163 19.9674 15.9004C21.2068 14.1846 21.8631 12.1164 21.8399 9.99986C21.8489 7.36072 20.8107 4.82579 18.9531 2.95113C17.0954 1.07646 14.5701 0.015151 11.931 0Z" fill="#545454"/>
<path d="M11.8401 4.5C11.599 4.5 11.3677 4.59578 11.1973 4.76626C11.0268 4.93675 10.931 5.16798 10.931 5.40908V9.99992C10.9349 10.2402 11.0301 10.47 11.1974 10.6426L13.9246 13.3944C14.0957 13.5629 14.3259 13.6578 14.566 13.659C14.8061 13.6602 15.0372 13.5675 15.21 13.4008C15.3812 13.231 15.4779 13.0002 15.4789 12.7592C15.4799 12.5181 15.3852 12.2865 15.2155 12.1153L12.7492 9.62629V5.40908C12.7492 5.16798 12.6534 4.93675 12.4829 4.76626C12.3124 4.59578 12.0812 4.5 11.8401 4.5Z" fill="#545454"/>
</svg>
