<svg width="28" height="28" viewBox="0 0 28 28" fill="none" xmlns="http://www.w3.org/2000/svg">
<path d="M19.727 9.90884C19.51 9.90884 19.3019 9.99504 19.1484 10.1485C18.995 10.3019 18.9088 10.51 18.9088 10.727V19.8828C18.8854 20.2965 18.6994 20.6842 18.3913 20.9614C18.0833 21.2386 17.6783 21.3829 17.2644 21.3628H10.7356C10.3217 21.3829 9.91663 21.2386 9.60862 20.9614C9.30061 20.6842 9.11461 20.2965 9.09114 19.8828V10.727C9.09114 10.51 9.00494 10.3019 8.85151 10.1485C8.69808 9.99504 8.48998 9.90884 8.273 9.90884C8.05602 9.90884 7.84792 9.99504 7.69449 10.1485C7.54106 10.3019 7.45486 10.51 7.45486 10.727V19.8828C7.47821 20.7306 7.83659 21.5345 8.4515 22.1186C9.06641 22.7027 9.88774 23.0193 10.7356 22.9991H17.2644C18.1122 23.0193 18.9335 22.7027 19.5485 22.1186C20.1634 21.5345 20.5218 20.7306 20.5451 19.8828V10.727C20.5451 10.51 20.4589 10.3019 20.3055 10.1485C20.152 9.99504 19.9439 9.90884 19.727 9.90884ZM20.5451 7.45442H17.2725V5.81814C17.2725 5.60116 17.1863 5.39306 17.0329 5.23963C16.8795 5.0862 16.6714 5 16.4544 5H11.5456C11.3286 5 11.1205 5.0862 10.967 5.23963C10.8136 5.39306 10.7274 5.60116 10.7274 5.81814V7.45442H7.45486C7.23787 7.45442 7.02978 7.54062 6.87635 7.69405C6.72292 7.84748 6.63672 8.05558 6.63672 8.27256C6.63672 8.48955 6.72292 8.69764 6.87635 8.85107C7.02978 9.0045 7.23787 9.0907 7.45486 9.0907H20.5451C20.7621 9.0907 20.9702 9.0045 21.1236 8.85107C21.277 8.69764 21.3632 8.48955 21.3632 8.27256C21.3632 8.05558 21.277 7.84748 21.1236 7.69405C20.9702 7.54062 20.7621 7.45442 20.5451 7.45442ZM12.3637 7.45442V6.63628H15.6363V7.45442H12.3637Z" fill="#545454"/>
<path d="M13.1818 18.0905V12.3636C13.1818 12.1466 13.0956 11.9385 12.9422 11.785C12.7888 11.6316 12.5807 11.5454 12.3637 11.5454C12.1467 11.5454 11.9386 11.6316 11.7852 11.785C11.6317 11.9385 11.5455 12.1466 11.5455 12.3636V18.0905C11.5455 18.3075 11.6317 18.5156 11.7852 18.669C11.9386 18.8225 12.1467 18.9087 12.3637 18.9087C12.5807 18.9087 12.7888 18.8225 12.9422 18.669C13.0956 18.5156 13.1818 18.3075 13.1818 18.0905ZM16.4544 18.0905V12.3636C16.4544 12.1466 16.3682 11.9385 16.2147 11.785C16.0613 11.6316 15.8532 11.5454 15.6362 11.5454C15.4192 11.5454 15.2112 11.6316 15.0577 11.785C14.9043 11.9385 14.8181 12.1466 14.8181 12.3636V18.0905C14.8181 18.3075 14.9043 18.5156 15.0577 18.669C15.2112 18.8225 15.4192 18.9087 15.6362 18.9087C15.8532 18.9087 16.0613 18.8225 16.2147 18.669C16.3682 18.5156 16.4544 18.3075 16.4544 18.0905Z" fill="#545454"/>
</svg>
