<svg width="60" height="68" viewBox="0 0 60 68" fill="none" xmlns="http://www.w3.org/2000/svg">
<path d="M12.75 0C10.4125 0 8.5 1.9125 8.5 4.25V63.75C8.5 66.0875 10.4125 68 12.75 68H55.25C57.5875 68 59.5 66.0875 59.5 63.75V17L42.5 0H12.75Z" fill="#E2E5E7"/>
<path d="M46.75 17H59.5L42.5 0V12.75C42.5 15.0875 44.4125 17 46.75 17Z" fill="#B0B7BD"/>
<path d="M59.5 29.75L46.75 17H59.5V29.75Z" fill="#CAD1D8"/>
<path d="M51 55.25C51 56.4188 50.0438 57.375 48.875 57.375H2.125C0.95625 57.375 0 56.4188 0 55.25V34C0 32.8312 0.95625 31.875 2.125 31.875H48.875C50.0438 31.875 51 32.8312 51 34V55.25Z" fill="#F15642"/>
<path d="M9.26288 40.2624C9.26288 39.7014 9.70488 39.0894 10.4168 39.0894H14.3416C16.5516 39.0894 18.5406 40.5684 18.5406 43.4031C18.5406 46.0891 16.5516 47.5851 14.3416 47.5851H11.5048V49.8291C11.5048 50.5771 11.0288 51 10.4168 51C9.85575 51 9.26288 50.5771 9.26288 49.8291V40.2624ZM11.5048 41.2292V45.4622H14.3416C15.4806 45.4622 16.3816 44.4571 16.3816 43.4031C16.3816 42.2152 15.4806 41.2292 14.3416 41.2292H11.5048ZM21.8684 51C21.3074 51 20.6954 50.694 20.6954 49.9481V40.2964C20.6954 39.6865 21.3074 39.2424 21.8684 39.2424H25.7593C33.524 39.2424 33.354 51 25.9123 51H21.8684ZM22.9394 41.3164V48.9281H25.7593C30.3471 48.9281 30.5511 41.3164 25.7593 41.3164H22.9394ZM36.108 41.4524V44.1532H40.4409C41.0529 44.1532 41.6649 44.7652 41.6649 45.3581C41.6649 45.9191 41.0529 46.3781 40.4409 46.3781H36.108V49.946C36.108 50.541 35.6851 50.9979 35.0901 50.9979C34.3421 50.9979 33.8853 50.541 33.8853 49.946V40.2942C33.8853 39.6844 34.3443 39.2402 35.0901 39.2402H41.055C41.803 39.2402 42.245 39.6844 42.245 40.2942C42.245 40.8382 41.803 41.4502 41.055 41.4502H36.108V41.4524Z" fill="white"/>
<path d="M48.875 57.375H8.5V59.5H48.875C50.0438 59.5 51 58.5438 51 57.375V55.25C51 56.4188 50.0438 57.375 48.875 57.375Z" fill="#CAD1D8"/>
</svg>
