<svg width="20" height="20" viewBox="0 0 20 20" fill="none" xmlns="http://www.w3.org/2000/svg">
<path d="M16.25 20H3.74999C3.19766 19.9993 2.66814 19.7796 2.27758 19.3891C1.88702 18.9985 1.66732 18.469 1.66666 17.9167V2.08333C1.66666 0.935 2.60166 0 3.74999 0H16.25C17.3983 0 18.3333 0.935 18.3333 2.08333V17.9167C18.3333 19.065 17.3983 20 16.25 20ZM3.74999 0.833333C3.06082 0.833333 2.49999 1.39417 2.49999 2.08333V17.9167C2.49999 18.6058 3.06082 19.1667 3.74999 19.1667H16.25C16.9392 19.1667 17.5 18.6058 17.5 17.9167V2.08333C17.5 1.39417 16.9392 0.833333 16.25 0.833333H3.74999Z" fill="#005A67"/>
<path d="M9.58332 8.33317C9.47282 8.33317 9.36684 8.28927 9.2887 8.21113C9.21056 8.13299 9.16666 8.02701 9.16666 7.9165V7.49984H4.99999V7.9165C4.99999 8.02701 4.95609 8.13299 4.87795 8.21113C4.79981 8.28927 4.69383 8.33317 4.58332 8.33317C4.47282 8.33317 4.36684 8.28927 4.2887 8.21113C4.21056 8.13299 4.16666 8.02701 4.16666 7.9165V7.08317C4.16666 6.97266 4.21056 6.86668 4.2887 6.78854C4.36684 6.7104 4.47282 6.6665 4.58332 6.6665H9.58332C9.69383 6.6665 9.79981 6.7104 9.87795 6.78854C9.95609 6.86668 9.99999 6.97266 9.99999 7.08317V7.9165C9.99999 8.02701 9.95609 8.13299 9.87795 8.21113C9.79981 8.28927 9.69383 8.33317 9.58332 8.33317Z" fill="#005A67"/>
<path d="M7.08332 12.4998C6.97282 12.4998 6.86684 12.4559 6.7887 12.3778C6.71055 12.2997 6.66666 12.1937 6.66666 12.0832V7.08317C6.66666 6.97266 6.71055 6.86668 6.7887 6.78854C6.86684 6.7104 6.97282 6.6665 7.08332 6.6665C7.19383 6.6665 7.29981 6.7104 7.37795 6.78854C7.45609 6.86668 7.49999 6.97266 7.49999 7.08317V12.0832C7.49999 12.1937 7.45609 12.2997 7.37795 12.3778C7.29981 12.4559 7.19383 12.4998 7.08332 12.4998Z" fill="#005A67"/>
<path d="M7.91666 12.4998H6.24999C6.13948 12.4998 6.0335 12.4559 5.95536 12.3778C5.87722 12.2997 5.83332 12.1937 5.83332 12.0832C5.83332 11.9727 5.87722 11.8667 5.95536 11.7885C6.0335 11.7104 6.13948 11.6665 6.24999 11.6665H7.91666C8.02716 11.6665 8.13314 11.7104 8.21129 11.7885C8.28943 11.8667 8.33332 11.9727 8.33332 12.0832C8.33332 12.1937 8.28943 12.2997 8.21129 12.3778C8.13314 12.4559 8.02716 12.4998 7.91666 12.4998ZM15.4167 7.49984H12.0833C11.9728 7.49984 11.8668 7.45594 11.7887 7.3778C11.7106 7.29966 11.6667 7.19368 11.6667 7.08317C11.6667 6.97266 11.7106 6.86668 11.7887 6.78854C11.8668 6.7104 11.9728 6.6665 12.0833 6.6665H15.4167C15.5272 6.6665 15.6331 6.7104 15.7113 6.78854C15.7894 6.86668 15.8333 6.97266 15.8333 7.08317C15.8333 7.19368 15.7894 7.29966 15.7113 7.3778C15.6331 7.45594 15.5272 7.49984 15.4167 7.49984ZM15.4167 9.99984H12.0833C11.9728 9.99984 11.8668 9.95594 11.7887 9.8778C11.7106 9.79966 11.6667 9.69368 11.6667 9.58317C11.6667 9.47266 11.7106 9.36668 11.7887 9.28854C11.8668 9.2104 11.9728 9.1665 12.0833 9.1665H15.4167C15.5272 9.1665 15.6331 9.2104 15.7113 9.28854C15.7894 9.36668 15.8333 9.47266 15.8333 9.58317C15.8333 9.69368 15.7894 9.79966 15.7113 9.8778C15.6331 9.95594 15.5272 9.99984 15.4167 9.99984ZM15.4167 12.4998H12.0833C11.9728 12.4998 11.8668 12.4559 11.7887 12.3778C11.7106 12.2997 11.6667 12.1937 11.6667 12.0832C11.6667 11.9727 11.7106 11.8667 11.7887 11.7885C11.8668 11.7104 11.9728 11.6665 12.0833 11.6665H15.4167C15.5272 11.6665 15.6331 11.7104 15.7113 11.7885C15.7894 11.8667 15.8333 11.9727 15.8333 12.0832C15.8333 12.1937 15.7894 12.2997 15.7113 12.3778C15.6331 12.4559 15.5272 12.4998 15.4167 12.4998ZM15.4167 14.9998H4.58332C4.47282 14.9998 4.36684 14.9559 4.2887 14.8778C4.21056 14.7997 4.16666 14.6937 4.16666 14.5832C4.16666 14.4727 4.21056 14.3667 4.2887 14.2885C4.36684 14.2104 4.47282 14.1665 4.58332 14.1665H15.4167C15.5272 14.1665 15.6331 14.2104 15.7113 14.2885C15.7894 14.3667 15.8333 14.4727 15.8333 14.5832C15.8333 14.6937 15.7894 14.7997 15.7113 14.8778C15.6331 14.9559 15.5272 14.9998 15.4167 14.9998ZM15.4167 17.4998H4.58332C4.47282 17.4998 4.36684 17.4559 4.2887 17.3778C4.21056 17.2997 4.16666 17.1937 4.16666 17.0832C4.16666 16.9727 4.21056 16.8667 4.2887 16.7885C4.36684 16.7104 4.47282 16.6665 4.58332 16.6665H15.4167C15.5272 16.6665 15.6331 16.7104 15.7113 16.7885C15.7894 16.8667 15.8333 16.9727 15.8333 17.0832C15.8333 17.1937 15.7894 17.2997 15.7113 17.3778C15.6331 17.4559 15.5272 17.4998 15.4167 17.4998Z" fill="#005A67"/>
</svg>
