<svg width="32" height="32" viewBox="0 0 32 32" fill="none" xmlns="http://www.w3.org/2000/svg">
<g clip-path="url(#clip0_75_567)">
<path d="M17.3069 0.247313C17.1601 0.09275 16.959 0 16.7505 0H4.26737C1.96381 0 0.0625 1.89375 0.0625 4.197V27.8027C0.0625 30.1062 1.96388 32 4.26731 32H21.2102C23.5137 32 25.4151 30.1062 25.4151 27.8027V9.05875C25.4151 8.85787 25.3223 8.66475 25.1909 8.51775L17.3069 0.247313ZM17.531 2.72856L22.8103 8.2705H19.3784C18.3581 8.2705 17.531 7.45112 17.531 6.43094V2.72856ZM21.2102 30.4541H4.26731C2.822 30.4541 1.60837 29.2561 1.60837 27.8027V4.197C1.60837 2.75169 2.81419 1.54587 4.26731 1.54587H15.9851V6.43087C15.9851 8.30906 17.5002 9.81637 19.3784 9.81637H23.8691V27.8027C23.8691 29.2561 22.6633 30.4541 21.2102 30.4541Z" fill="#545454"/>
<path d="M19.1001 25.1209H6.37743C5.95243 25.1209 5.60449 25.4685 5.60449 25.8938C5.60449 26.3188 5.95237 26.6667 6.37743 26.6667H19.1079C19.5329 26.6667 19.8809 26.3189 19.8809 25.8938C19.8809 25.4685 19.5329 25.1209 19.1001 25.1209ZM12.1746 22.3459C12.3216 22.5005 12.5224 22.5932 12.7387 22.5932C12.9553 22.5932 13.1562 22.5005 13.303 22.3459L17.8325 17.4841C18.1262 17.1747 18.103 16.6802 17.7939 16.3943C17.4846 16.1006 16.99 16.1236 16.7041 16.4329L13.5117 19.8569V11.4165C13.5117 10.9912 13.1638 10.6436 12.7387 10.6436C12.3137 10.6436 11.9658 10.9912 11.9658 11.4165V19.8569L8.78124 16.4329C8.48749 16.1237 8.00049 16.1006 7.69137 16.3943C7.3823 16.688 7.35912 17.1751 7.6528 17.4841L12.1746 22.3459Z" fill="#545454"/>
</g>
<defs>
<clipPath id="clip0_75_567">
<rect width="32" height="32" fill="white"/>
</clipPath>
</defs>
</svg>
