<svg width="24" height="24" viewBox="0 0 24 24" fill="none" xmlns="http://www.w3.org/2000/svg">
<g clip-path="url(#clip0_81_830)">
<path d="M4.16439 19.0874C4.01608 19.0873 3.8711 19.0433 3.7478 18.9609C3.62449 18.8785 3.52838 18.7614 3.47163 18.6244C3.41488 18.4873 3.40003 18.3366 3.42895 18.1911C3.45788 18.0456 3.52928 17.912 3.63414 17.8071L15.3544 6.08688C15.4236 6.01524 15.5063 5.95811 15.5978 5.9188C15.6893 5.87949 15.7878 5.8588 15.8873 5.85794C15.9869 5.85707 16.0857 5.87605 16.1779 5.91376C16.27 5.95147 16.3538 6.00716 16.4242 6.07758C16.4946 6.148 16.5503 6.23174 16.588 6.32391C16.6257 6.41608 16.6447 6.51484 16.6438 6.61443C16.643 6.71401 16.6223 6.81243 16.583 6.90393C16.5437 6.99543 16.4865 7.07819 16.4149 7.14738L4.69464 18.8676C4.54839 19.0139 4.35639 19.0874 4.16439 19.0874Z" fill="black"/>
<path d="M3.00634 24.4884C2.89442 24.4885 2.78391 24.4636 2.6829 24.4154C2.58188 24.3672 2.49293 24.297 2.42256 24.21C2.35219 24.123 2.30219 24.0213 2.27622 23.9125C2.25024 23.8036 2.24896 23.6903 2.27246 23.5809L3.43121 18.1798C3.45161 18.0832 3.49086 17.9917 3.54672 17.9103C3.60258 17.8289 3.67395 17.7594 3.75673 17.7057C3.83952 17.652 3.93209 17.6151 4.02915 17.5972C4.12621 17.5793 4.22584 17.5808 4.32233 17.6015C4.41883 17.6222 4.51029 17.6617 4.59147 17.7179C4.67265 17.774 4.74196 17.8456 4.79543 17.9285C4.84889 18.0115 4.88546 18.1041 4.90303 18.2013C4.9206 18.2984 4.91884 18.398 4.89784 18.4944L3.73909 23.8956C3.70315 24.0633 3.61082 24.2136 3.47748 24.3215C3.34414 24.4294 3.17785 24.4883 3.00634 24.4884ZM8.40671 23.3297C8.2584 23.3296 8.11342 23.2856 7.99012 23.2032C7.86681 23.1208 7.77071 23.0037 7.71395 22.8667C7.6572 22.7296 7.64235 22.5789 7.67127 22.4334C7.7002 22.2879 7.7716 22.1543 7.87646 22.0494L19.5967 10.3296C19.6659 10.2579 19.7487 10.2008 19.8402 10.1615C19.9317 10.1222 20.0301 10.1015 20.1297 10.1006C20.2292 10.0997 20.328 10.1187 20.4202 10.1564C20.5123 10.1941 20.5961 10.2498 20.6665 10.3203C20.7369 10.3907 20.7926 10.4744 20.8303 10.5666C20.868 10.6588 20.887 10.7575 20.8861 10.8571C20.8853 10.9567 20.8646 11.0551 20.8253 11.1466C20.786 11.2381 20.7288 11.3209 20.6572 11.3901L8.93734 23.1099C8.86774 23.1797 8.78503 23.2351 8.69396 23.2728C8.6029 23.3105 8.50528 23.3298 8.40671 23.3297Z" fill="black"/>
<path d="M3.00488 24.4884C2.82007 24.4876 2.64205 24.4186 2.50494 24.2947C2.36783 24.1708 2.28127 24.0006 2.26185 23.8169C2.24243 23.6331 2.29151 23.4486 2.3997 23.2987C2.50789 23.1489 2.66756 23.0443 2.84813 23.0049L8.24925 21.8461C8.44347 21.8051 8.64603 21.8427 8.81255 21.9508C8.97906 22.0589 9.09594 22.2285 9.13758 22.4226C9.17921 22.6167 9.14221 22.8194 9.03467 22.9862C8.92713 23.1531 8.75784 23.2705 8.56388 23.3128L3.16275 24.4715C3.11089 24.4828 3.05796 24.4885 3.00488 24.4884ZM18.0056 13.7308C17.9071 13.7309 17.8095 13.7116 17.7185 13.6739C17.6275 13.6362 17.5449 13.5808 17.4754 13.511L13.233 9.26863C13.1614 9.19944 13.1042 9.11668 13.0649 9.02518C13.0256 8.93368 13.0049 8.83526 13.0041 8.73568C13.0032 8.63609 13.0222 8.53733 13.0599 8.44516C13.0976 8.35299 13.1533 8.26925 13.2237 8.19883C13.2941 8.12841 13.3779 8.07272 13.47 8.03501C13.5622 7.9973 13.661 7.97832 13.7606 7.97919C13.8601 7.98005 13.9586 8.00074 14.0501 8.04005C14.1416 8.07936 14.2243 8.13649 14.2935 8.20813L18.5359 12.4505C18.6407 12.5554 18.7121 12.689 18.7411 12.8345C18.77 12.9799 18.7551 13.1307 18.6984 13.2677C18.6416 13.4048 18.5455 13.5219 18.4222 13.6043C18.2989 13.6867 18.1539 13.7307 18.0056 13.7308ZM20.127 11.6098C19.9786 11.6099 19.8335 11.5659 19.71 11.4835C19.5866 11.4011 19.4904 11.284 19.4335 11.1468C19.3767 11.0097 19.3619 10.8588 19.3909 10.7133C19.4198 10.5677 19.4914 10.434 19.5964 10.3291C20.0138 9.91175 20.2436 9.34663 20.2436 8.73838C20.2436 8.13013 20.0138 7.565 19.5964 7.14763C19.1786 6.72988 18.6135 6.5 18.0053 6.5C17.397 6.5 16.8319 6.72988 16.4145 7.14763C16.3448 7.21728 16.2621 7.27254 16.1711 7.31024C16.0801 7.34794 15.9826 7.36734 15.8841 7.36734C15.7856 7.36734 15.688 7.34794 15.597 7.31024C15.506 7.27254 15.4233 7.21728 15.3536 7.14763C15.284 7.07797 15.2287 6.99527 15.191 6.90426C15.1533 6.81325 15.1339 6.7157 15.1339 6.61719C15.1339 6.51868 15.1533 6.42113 15.191 6.33012C15.2287 6.2391 15.284 6.15641 15.3536 6.08675C16.0541 5.38587 16.9958 5 18.0053 5C19.0144 5 19.9564 5.38587 20.6569 6.08675C21.3578 6.78725 21.7436 7.72888 21.7436 8.73838C21.7436 9.74788 21.3578 10.6895 20.6569 11.39C20.5874 11.4598 20.5048 11.5151 20.4139 11.5528C20.323 11.5905 20.2255 11.6099 20.127 11.6098Z" fill="black"/>
</g>
<defs>
<clipPath id="clip0_81_830">
<rect width="24" height="24" fill="white"/>
</clipPath>
</defs>
</svg>
