<svg width="14" height="10" viewBox="0 0 14 10" fill="none" xmlns="http://www.w3.org/2000/svg">
<path d="M11.9444 10H1.38889C1.02067 9.99956 0.667655 9.85309 0.407283 9.59272C0.146912 9.33235 0.000441072 8.97933 0 8.61111L0 1.38889C0 0.623333 0.623333 0 1.38889 0H11.9444C12.71 0 13.3333 0.623333 13.3333 1.38889V8.61111C13.3333 9.37667 12.71 10 11.9444 10ZM1.38889 0.555556C0.929444 0.555556 0.555556 0.929444 0.555556 1.38889V8.61111C0.555556 9.07056 0.929444 9.44444 1.38889 9.44444H11.9444C12.4039 9.44444 12.7778 9.07056 12.7778 8.61111V1.38889C12.7778 0.929444 12.4039 0.555556 11.9444 0.555556H1.38889Z" fill="white"/>
<path d="M4.16626 4.99995C3.4007 4.99995 2.77737 4.37661 2.77737 3.61106C2.77737 2.8455 3.4007 2.22217 4.16626 2.22217C4.93182 2.22217 5.55515 2.8455 5.55515 3.61106C5.55515 4.37661 4.93182 4.99995 4.16626 4.99995ZM4.16626 2.77772C3.70682 2.77772 3.33293 3.15161 3.33293 3.61106C3.33293 4.0705 3.70682 4.44439 4.16626 4.44439C4.6257 4.44439 4.99959 4.0705 4.99959 3.61106C4.99959 3.15161 4.6257 2.77772 4.16626 2.77772ZM6.38848 7.77772C6.31481 7.77772 6.24416 7.74846 6.19206 7.69636C6.13997 7.64427 6.1107 7.57362 6.1107 7.49995V6.94439C6.1107 6.48495 5.73682 6.11106 5.27737 6.11106H3.05515C2.5957 6.11106 2.22182 6.48495 2.22182 6.94439V7.49995C2.22182 7.57362 2.19255 7.64427 2.14046 7.69636C2.08836 7.74846 2.01771 7.77772 1.94404 7.77772C1.87037 7.77772 1.79971 7.74846 1.74762 7.69636C1.69553 7.64427 1.66626 7.57362 1.66626 7.49995V6.94439C1.66626 6.17883 2.28959 5.5555 3.05515 5.5555H5.27737C6.04293 5.5555 6.66626 6.17883 6.66626 6.94439V7.49995C6.66626 7.57362 6.63699 7.64427 6.5849 7.69636C6.53281 7.74846 6.46215 7.77772 6.38848 7.77772ZM11.3885 3.33328H8.05515C7.98148 3.33328 7.91082 3.30401 7.85873 3.25192C7.80664 3.19983 7.77737 3.12917 7.77737 3.0555C7.77737 2.98183 7.80664 2.91118 7.85873 2.85908C7.91082 2.80699 7.98148 2.77772 8.05515 2.77772H11.3885C11.4622 2.77772 11.5328 2.80699 11.5849 2.85908C11.637 2.91118 11.6663 2.98183 11.6663 3.0555C11.6663 3.12917 11.637 3.19983 11.5849 3.25192C11.5328 3.30401 11.4622 3.33328 11.3885 3.33328ZM11.3885 5.5555H8.05515C7.98148 5.5555 7.91082 5.52624 7.85873 5.47414C7.80664 5.42205 7.77737 5.3514 7.77737 5.27772C7.77737 5.20405 7.80664 5.1334 7.85873 5.0813C7.91082 5.02921 7.98148 4.99995 8.05515 4.99995H11.3885C11.4622 4.99995 11.5328 5.02921 11.5849 5.0813C11.637 5.1334 11.6663 5.20405 11.6663 5.27772C11.6663 5.3514 11.637 5.42205 11.5849 5.47414C11.5328 5.52624 11.4622 5.5555 11.3885 5.5555ZM11.3885 7.77772H8.05515C7.98148 7.77772 7.91082 7.74846 7.85873 7.69636C7.80664 7.64427 7.77737 7.57362 7.77737 7.49995C7.77737 7.42627 7.80664 7.35562 7.85873 7.30353C7.91082 7.25143 7.98148 7.22217 8.05515 7.22217H11.3885C11.4622 7.22217 11.5328 7.25143 11.5849 7.30353C11.637 7.35562 11.6663 7.42627 11.6663 7.49995C11.6663 7.57362 11.637 7.64427 11.5849 7.69636C11.5328 7.74846 11.4622 7.77772 11.3885 7.77772Z" fill="white"/>
</svg>
