<svg width="56" height="56" viewBox="0 0 56 56" fill="none" xmlns="http://www.w3.org/2000/svg">
<path d="M50.7502 20.7248V39.6668C50.8881 40.8491 50.7567 42.0474 50.3657 43.1718C49.9748 44.2962 49.3344 45.3175 48.4927 46.1593C47.6509 47.001 46.6296 47.6414 45.5052 48.0323C44.3808 48.4233 43.1826 48.5547 42.0002 48.4168H14.0002C12.8178 48.5547 11.6195 48.4233 10.4951 48.0323C9.37073 47.6414 8.34941 47.001 7.50766 46.1593C6.66591 45.3175 6.02557 44.2962 5.63461 43.1718C5.24366 42.0474 5.11223 40.8491 5.25017 39.6668V16.3334C5.11223 15.151 5.24366 13.9527 5.63461 12.8284C6.02557 11.704 6.66591 10.6827 7.50766 9.84091C8.34941 8.99916 9.37073 8.35882 10.4951 7.96786C11.6195 7.57691 12.8178 7.44548 14.0002 7.58342H34.5335C34.6367 7.58612 34.7381 7.61164 34.8303 7.65814C34.9226 7.70464 35.0033 7.77097 35.0669 7.85237C35.1305 7.93378 35.1752 8.02824 35.198 8.12899C35.2207 8.22973 35.2209 8.33426 35.1985 8.43508C34.648 11.1614 35.2016 13.9948 36.738 16.3133C38.2744 18.6319 40.6679 20.2461 43.3932 20.8018C45.5502 21.233 47.7881 20.9759 49.7912 20.0668C49.898 20.0242 50.0136 20.0086 50.1278 20.0214C50.2421 20.0341 50.3515 20.0748 50.4462 20.1399C50.541 20.2049 50.6184 20.2923 50.6714 20.3943C50.7244 20.4963 50.7514 20.6098 50.7502 20.7248Z" fill="#0095AA"/>
<path d="M47.0447 33.0446L36.6567 22.6566C36.2167 22.2183 35.621 21.9722 35 21.9722C34.379 21.9722 33.7833 22.2183 33.3433 22.6566L21.8167 34.1833C21.5986 34.397 21.3054 34.5168 21 34.5168C20.6946 34.5168 20.4014 34.397 20.1833 34.1833L17.99 31.9899C17.55 31.5516 16.9543 31.3056 16.3333 31.3056C15.7123 31.3056 15.1166 31.5516 14.6767 31.9899L8.95533 37.7113C8.82402 37.8424 8.75016 38.0204 8.75 38.2059V39.6666C8.75 43.3533 10.3133 44.9166 14 44.9166H42C45.6867 44.9166 47.25 43.3533 47.25 39.6666V33.5393C47.2498 33.3537 47.176 33.1758 47.0447 33.0446ZM18.6667 23.9166C18.2836 23.918 17.9041 23.8439 17.5497 23.6986C17.1953 23.5533 16.873 23.3396 16.6012 23.0698C16.0522 22.5247 15.7423 21.784 15.7395 21.0104C15.7367 20.2369 16.0413 19.4939 16.5863 18.945C17.1314 18.396 17.8721 18.0861 18.6457 18.0833H18.6667C19.4402 18.0833 20.1821 18.3906 20.7291 18.9375C21.276 19.4845 21.5833 20.2264 21.5833 20.9999C21.5833 21.7735 21.276 22.5154 20.7291 23.0623C20.1821 23.6093 19.4402 23.9166 18.6667 23.9166ZM50.2367 9.26327L46.7367 5.76327C46.4082 5.43612 45.9636 5.25244 45.5 5.25244C45.0364 5.25244 44.5918 5.43612 44.2633 5.76327L40.7633 9.26327C40.4542 9.59501 40.2859 10.0338 40.2939 10.4872C40.3019 10.9405 40.4856 11.3731 40.8062 11.6937C41.1268 12.0144 41.5594 12.198 42.0128 12.206C42.4661 12.214 42.9049 12.0457 43.2367 11.7366L43.75 11.2256V16.3333C43.75 16.7974 43.9344 17.2425 44.2626 17.5707C44.5907 17.8989 45.0359 18.0833 45.5 18.0833C45.9641 18.0833 46.4092 17.8989 46.7374 17.5707C47.0656 17.2425 47.25 16.7974 47.25 16.3333V11.2256L47.7633 11.7366C48.0951 12.0457 48.5338 12.214 48.9872 12.206C49.4406 12.198 49.8731 12.0144 50.1938 11.6937C50.5144 11.3731 50.6981 10.9405 50.7061 10.4872C50.7141 10.0338 50.5458 9.59501 50.2367 9.26327Z" fill="white"/>
</svg>
