<svg width="24" height="24" viewBox="0 0 24 24" fill="none" xmlns="http://www.w3.org/2000/svg">
<path d="M16.7784 21C16.6409 21 16.5002 20.9828 16.3611 20.946L3.70955 17.5579C3.29243 17.4422 2.93746 17.1672 2.72108 16.7923C2.5047 16.4174 2.44421 15.9725 2.55264 15.5534L4.14892 9.60357C4.17834 9.50037 4.24713 9.41287 4.34047 9.35991C4.43381 9.30696 4.54421 9.29281 4.64789 9.3205C4.75157 9.34819 4.84022 9.41551 4.89472 9.50794C4.94923 9.60038 4.96523 9.71054 4.93928 9.81466L3.34383 15.7628C3.2301 16.1965 3.49028 16.6481 3.92474 16.7684L16.5714 20.1548C16.7798 20.2103 17.0017 20.1808 17.1884 20.0728C17.3751 19.9648 17.5113 19.7872 17.5671 19.5788L18.2061 17.211C18.2201 17.1591 18.2441 17.1105 18.2769 17.0679C18.3096 17.0253 18.3505 16.9896 18.3971 16.9627C18.4436 16.9359 18.495 16.9185 18.5483 16.9116C18.6016 16.9046 18.6557 16.9082 18.7076 16.9222C18.7595 16.9362 18.8082 16.9602 18.8508 16.993C18.8934 17.0258 18.9291 17.0666 18.9559 17.1132C18.9827 17.1597 19.0001 17.2111 19.0071 17.2644C19.014 17.3177 19.0104 17.3719 18.9965 17.4238L18.3583 19.7883C18.2652 20.1361 18.0599 20.4435 17.7742 20.6626C17.4885 20.8817 17.1384 21.0004 16.7784 21Z" fill="#545454"/>
<path d="M20.4986 16.0909H7.40773C6.50528 16.0909 5.77137 15.357 5.77137 14.4545V4.63636C5.77137 3.73391 6.50528 3 7.40773 3H20.4986C21.4011 3 22.135 3.73391 22.135 4.63636V14.4545C22.135 15.357 21.4011 16.0909 20.4986 16.0909ZM7.40773 3.81818C6.95692 3.81818 6.58955 4.18555 6.58955 4.63636V14.4545C6.58955 14.9054 6.95692 15.2727 7.40773 15.2727H20.4986C20.9495 15.2727 21.3168 14.9054 21.3168 14.4545V4.63636C21.3168 4.18555 20.9495 3.81818 20.4986 3.81818H7.40773Z" fill="#545454"/>
<path d="M9.86229 8.72732C8.95983 8.72732 8.22592 7.99341 8.22592 7.09095C8.22592 6.1885 8.95983 5.45459 9.86229 5.45459C10.7647 5.45459 11.4986 6.1885 11.4986 7.09095C11.4986 7.99341 10.7647 8.72732 9.86229 8.72732ZM9.86229 6.27277C9.41147 6.27277 9.0441 6.64014 9.0441 7.09095C9.0441 7.54177 9.41147 7.90914 9.86229 7.90914C10.3131 7.90914 10.6805 7.54177 10.6805 7.09095C10.6805 6.64014 10.3131 6.27277 9.86229 6.27277ZM6.23774 15.2155C6.15689 15.2155 6.07786 15.1915 6.01063 15.1466C5.94339 15.1017 5.89097 15.0379 5.85998 14.9632C5.82899 14.8885 5.82082 14.8064 5.83651 14.727C5.85219 14.6477 5.89102 14.5748 5.9481 14.5176L9.81238 10.6533C10.2755 10.1902 11.0846 10.1902 11.5477 10.6533L12.6981 11.8037L15.8825 7.98277C15.9968 7.84569 16.1396 7.73516 16.3009 7.65886C16.4623 7.58256 16.6383 7.54232 16.8168 7.54095H16.8258C17.0028 7.54086 17.1778 7.57905 17.3386 7.65291C17.4995 7.72677 17.6425 7.83455 17.7577 7.96886L22.0368 12.9614C22.0725 13.0021 22.0997 13.0494 22.117 13.1007C22.1342 13.152 22.1411 13.2062 22.1373 13.2601C22.1334 13.3141 22.1189 13.3667 22.0946 13.4151C22.0703 13.4634 22.0366 13.5064 21.9956 13.5416C21.9545 13.5768 21.9069 13.6036 21.8554 13.6202C21.8039 13.6369 21.7497 13.6432 21.6958 13.6388C21.6419 13.6344 21.5893 13.6193 21.5413 13.5945C21.4932 13.5696 21.4506 13.5355 21.4158 13.494L17.1367 8.5015C17.0984 8.45653 17.0508 8.42049 16.997 8.39589C16.9433 8.3713 16.8849 8.35876 16.8258 8.35914C16.7661 8.36073 16.7074 8.37463 16.6534 8.39998C16.5993 8.42532 16.5511 8.46155 16.5116 8.50641L13.0401 12.6718C13.0037 12.7155 12.9585 12.7511 12.9075 12.7764C12.8565 12.8016 12.8008 12.8159 12.7439 12.8182C12.6871 12.8218 12.6301 12.8129 12.577 12.7923C12.5239 12.7717 12.4759 12.7398 12.4363 12.6988L10.9693 11.2318C10.8912 11.1578 10.7877 11.1165 10.6801 11.1165C10.5725 11.1165 10.4689 11.1578 10.3908 11.2318L6.52656 15.096C6.48865 15.134 6.44362 15.1641 6.39406 15.1846C6.3445 15.2051 6.29137 15.2156 6.23774 15.2155Z" fill="#545454"/>
</svg>
