<svg width="12" height="14" viewBox="0 0 12 14" fill="none" xmlns="http://www.w3.org/2000/svg">
<path d="M9.15 4.635H3.22V3.375C3.22089 2.82719 3.41097 2.2965 3.75808 1.8727C4.1052 1.44889 4.58804 1.15799 5.12494 1.0492C5.66184 0.94041 6.21984 1.02041 6.70455 1.27566C7.18926 1.53091 7.57093 1.94575 7.785 2.45C7.895 2.705 8.185 2.825 8.44 2.715C8.695 2.61 8.815 2.315 8.705 2.06C8.44671 1.4488 8.01388 0.927362 7.46069 0.560943C6.90751 0.194523 6.25853 -0.000597818 5.595 1.3759e-06C3.735 1.3759e-06 2.22 1.515 2.22 3.375V4.635H2C0.895 4.635 0 5.53 0 6.635V12C0 13.105 0.895 14 2 14H9.15C10.255 14 11.15 13.105 11.15 12V6.635C11.15 5.535 10.255 4.635 9.15 4.635ZM10.15 12C10.15 12.55 9.7 13 9.15 13H2C1.45 13 1 12.55 1 12V6.635C1 6.085 1.45 5.635 2 5.635H9.15C9.7 5.635 10.15 6.085 10.15 6.635V12ZM6.475 9.175C6.475 9.485 6.315 9.765 6.075 9.925V11.15C6.075 11.425 5.85 11.65 5.575 11.65C5.3 11.65 5.075 11.425 5.075 11.15V9.925C4.835 9.765 4.675 9.485 4.675 9.175C4.675 8.93631 4.76982 8.70739 4.9386 8.53861C5.10739 8.36982 5.3363 8.275 5.575 8.275C5.81369 8.275 6.04261 8.36982 6.2114 8.53861C6.38018 8.70739 6.475 8.93631 6.475 9.175Z" fill="#FCFCFB"/>
</svg>
