<svg width="24" height="24" viewBox="0 0 24 24" fill="none" xmlns="http://www.w3.org/2000/svg">
<path d="M19 2H13C12.7348 2 12.4804 2.10536 12.2929 2.29289C12.1054 2.48043 12 2.73478 12 3C12 3.26522 12.1054 3.51957 12.2929 3.70711C12.4804 3.89464 12.7348 4 13 4H19C19.2652 4 19.5196 4.10536 19.7071 4.29289C19.8946 4.48043 20 4.73478 20 5V19C20 19.2652 19.8946 19.5196 19.7071 19.7071C19.5196 19.8946 19.2652 20 19 20H13C12.7348 20 12.4804 20.1054 12.2929 20.2929C12.1054 20.4804 12 20.7348 12 21C12 21.2652 12.1054 21.5196 12.2929 21.7071C12.4804 21.8946 12.7348 22 13 22H19C19.7956 22 20.5587 21.6839 21.1213 21.1213C21.6839 20.5587 22 19.7956 22 19V5C22 4.20435 21.6839 3.44129 21.1213 2.87868C20.5587 2.31607 19.7956 2 19 2Z" fill="#002547"/>
<path d="M7.70703 15.2931C7.80254 15.3853 7.87872 15.4957 7.93113 15.6177C7.98354 15.7397 8.01113 15.8709 8.01228 16.0037C8.01344 16.1365 7.98813 16.2681 7.93785 16.391C7.88757 16.5139 7.81332 16.6256 7.71943 16.7195C7.62553 16.8134 7.51388 16.8876 7.39099 16.9379C7.26809 16.9882 7.13641 17.0135 7.00363 17.0123C6.87085 17.0112 6.73963 16.9836 6.61763 16.9312C6.49562 16.8788 6.38528 16.8026 6.29303 16.7071L2.29303 12.7071C2.10556 12.5196 2.00024 12.2652 2.00024 12.0001C2.00024 11.7349 2.10556 11.4806 2.29303 11.2931L6.29303 7.29308C6.38528 7.19757 6.49562 7.12139 6.61763 7.06898C6.73963 7.01657 6.87085 6.98898 7.00363 6.98783C7.13641 6.98668 7.26809 7.01198 7.39099 7.06226C7.51388 7.11254 7.62553 7.18679 7.71943 7.28069C7.81332 7.37458 7.88757 7.48623 7.93785 7.60913C7.98813 7.73202 8.01344 7.8637 8.01228 7.99648C8.01113 8.12926 7.98354 8.26048 7.93113 8.38249C7.87872 8.50449 7.80254 8.61483 7.70703 8.70708L5.41403 11.0001H17C17.2652 11.0001 17.5196 11.1054 17.7071 11.293C17.8947 11.4805 18 11.7349 18 12.0001C18 12.2653 17.8947 12.5197 17.7071 12.7072C17.5196 12.8947 17.2652 13.0001 17 13.0001H5.41403L7.70703 15.2931Z" fill="#002547"/>
</svg>
