<svg width="24" height="24" viewBox="0 0 24 24" fill="none" xmlns="http://www.w3.org/2000/svg">
<path d="M21.2387 7.41238L16.1434 2.11789C16.1075 2.08062 16.0645 2.05097 16.0168 2.03071C15.9692 2.01045 15.918 2.00001 15.8663 2H8.27211C7.42223 2 6.73078 2.69117 6.73078 3.5407V8.92309H3.65316C3.0173 8.92309 2.5 9.44023 2.5 10.0759V15.8472C2.5 16.4829 3.0173 17 3.65316 17H6.73078V20.462C6.73078 21.31 7.42223 22 8.27211 22H19.8048C20.6547 22 21.3462 21.3104 21.3462 20.4629V7.6791C21.3462 7.57964 21.3076 7.48405 21.2387 7.41238ZM15.9616 3.03832L20.1443 7.38461H15.9616V3.03832ZM3.65316 16.2308C3.44145 16.2308 3.26926 16.0587 3.26926 15.8472V10.0759C3.26926 9.86441 3.44148 9.6923 3.65316 9.6923H14.0392C14.2509 9.6923 14.4231 9.86441 14.4231 10.0759V15.8472C14.4231 16.0587 14.2509 16.2308 14.0392 16.2308H3.65316ZM20.5769 20.4629C20.5769 20.8863 20.2305 21.2308 19.8048 21.2308H8.27211C7.84637 21.2308 7.5 20.8859 7.5 20.462V17H14.0392C14.675 17 15.1923 16.4829 15.1923 15.8472V10.0759C15.1923 9.44023 14.675 8.92309 14.0392 8.92309H7.5V3.5407C7.5 3.11527 7.84637 2.76922 8.27211 2.76922H15.1923V7.76922C15.1923 7.98164 15.3645 8.15383 15.5769 8.15383H20.5769V20.4629Z" fill="#545454"/>
<path d="M7.09811 11.7612C6.97041 11.5951 6.8119 11.4873 6.6226 11.4378C6.4994 11.4047 6.23498 11.3882 5.82932 11.3882H4.75885V14.692H5.42592V13.4457H5.86088C6.16287 13.4457 6.3935 13.4299 6.55276 13.3984C6.66994 13.3728 6.78526 13.3206 6.89869 13.2417C7.01213 13.1629 7.10565 13.0543 7.17928 12.9161C7.25291 12.7779 7.28971 12.6074 7.28971 12.4046C7.28967 12.1416 7.2258 11.9272 7.09811 11.7612ZM6.52682 12.6705C6.47651 12.7441 6.40701 12.7982 6.31834 12.8328C6.22967 12.8673 6.05393 12.8846 5.791 12.8846H5.42592V11.9471H5.74819C5.98858 11.9471 6.14858 11.9546 6.22819 11.9696C6.33635 11.9892 6.42576 12.038 6.49635 12.1161C6.56698 12.1942 6.60229 12.2934 6.60229 12.4136C6.60233 12.5112 6.57713 12.5969 6.52682 12.6705ZM10.4965 12.2908C10.4244 12.0797 10.3192 11.9013 10.181 11.7555C10.0428 11.6098 9.87678 11.5084 9.68299 11.4513C9.53877 11.4092 9.32916 11.3882 9.05424 11.3882H7.83502V14.692H9.0903C9.3367 14.692 9.5335 14.6687 9.68073 14.6221C9.87756 14.559 10.0338 14.4711 10.1495 14.3584C10.3027 14.2097 10.4206 14.0151 10.5033 13.7747C10.5709 13.5779 10.6047 13.3435 10.6047 13.0716C10.6047 12.7621 10.5687 12.5019 10.4965 12.2908ZM9.84748 13.6474C9.80241 13.7954 9.7442 13.9017 9.67283 13.9663C9.60147 14.0309 9.5117 14.0767 9.40354 14.1038C9.32092 14.1248 9.18643 14.1353 9.00014 14.1353H8.50209V11.9471H8.80182C9.07373 11.9471 9.25631 11.9576 9.34944 11.9787C9.47412 12.0057 9.57705 12.0575 9.65819 12.1342C9.73932 12.2108 9.80241 12.3174 9.84748 12.4542C9.89256 12.5909 9.9151 12.7869 9.9151 13.0424C9.9151 13.2978 9.89256 13.4994 9.84748 13.6474ZM13.4397 11.9471V11.3882H11.1749V14.692H11.8419V13.288H13.2212V12.7291H11.8419V11.9471H13.4397Z" fill="#545454"/>
</svg>
