<svg width="32" height="32" viewBox="0 0 32 32" fill="none" xmlns="http://www.w3.org/2000/svg">
<path d="M6.66667 29C6.30643 28.9986 5.95108 28.9166 5.62667 28.76C5.22901 28.5731 4.89259 28.2772 4.65654 27.9066C4.4205 27.536 4.29455 27.106 4.29333 26.6667V3.99999C4.29507 3.69069 4.35794 3.38478 4.47832 3.09986C4.5987 2.81494 4.77422 2.55663 4.99478 2.33979C5.21535 2.12294 5.4766 1.95184 5.76353 1.83632C6.05045 1.72079 6.35738 1.66314 6.66667 1.66666H25.3333C25.9511 1.67016 26.5426 1.91711 26.9794 2.35394C27.4162 2.79077 27.6632 3.38223 27.6667 3.99999V26.6667C27.658 27.0889 27.5349 27.5009 27.3105 27.8587C27.0861 28.2164 26.7688 28.5066 26.3924 28.6982C26.0161 28.8898 25.5947 28.9757 25.1734 28.9466C24.7521 28.9176 24.3465 28.7747 24 28.5333L16.2667 22.7333C16.2099 22.6879 16.1394 22.6631 16.0667 22.6631C15.994 22.6631 15.9234 22.6879 15.8667 22.7333L8.06667 28.5333C7.66189 28.8345 7.17122 28.9981 6.66667 29ZM6.66667 3.66666C6.57826 3.66666 6.49348 3.70177 6.43097 3.76429C6.36845 3.8268 6.33333 3.91158 6.33333 3.99999V26.6667C6.33287 26.7283 6.35024 26.7888 6.38335 26.8409C6.41647 26.8929 6.46392 26.9343 6.52 26.96C6.57104 26.995 6.63146 27.0137 6.69334 27.0137C6.75521 27.0137 6.81563 26.995 6.86667 26.96L14.6667 21.1333C15.0723 20.8345 15.5629 20.6732 16.0667 20.6732C16.5705 20.6732 17.0611 20.8345 17.4667 21.1333L25.2 26.9333C25.251 26.9683 25.3115 26.987 25.3733 26.987C25.4352 26.987 25.4956 26.9683 25.5467 26.9333C25.6027 26.9076 25.6502 26.8663 25.6833 26.8142C25.7164 26.7622 25.7338 26.7017 25.7333 26.64V3.99999C25.7343 3.95 25.7241 3.90041 25.7034 3.85492C25.6826 3.80942 25.6519 3.76918 25.6135 3.73717C25.5751 3.70515 25.5299 3.6822 25.4814 3.66999C25.4329 3.65778 25.3823 3.65664 25.3333 3.66666H6.66667Z" fill="#545454"/>
</svg>
