<svg width="32" height="32" viewBox="0 0 32 32" fill="none" xmlns="http://www.w3.org/2000/svg">
<g clip-path="url(#clip0_75_561)">
<path d="M28.3334 31.9997H3.66689C1.64422 31.9997 0.000427246 30.3557 0.000427246 28.3333V8.99996C0.000427246 6.97729 1.64416 5.3335 3.66689 5.3335H8.3336C8.88559 5.3335 9.33359 5.78149 9.33359 6.33349C9.33359 6.88548 8.88559 7.33348 8.3336 7.33348H3.66689C2.74815 7.33348 2.00041 8.08128 2.00041 8.99996V28.3333C2.00041 29.2517 2.74821 29.9998 3.66689 29.9998H28.3334C29.2521 29.9998 30.0001 29.2517 30.0001 28.3333V16.9999C30.0001 16.4479 30.4481 15.9999 31.0001 15.9999C31.5521 15.9999 32.0001 16.4479 32.0001 16.9999V28.3333C32.0001 30.3558 30.3561 31.9997 28.3334 31.9997Z" fill="#545454"/>
<path d="M8.99886 21.3162C8.92468 21.3166 8.85077 21.3076 8.77886 21.2894C8.32699 21.1841 8.00037 20.7974 8.00037 20.3336V18.3336C8.00037 11.1657 13.8323 5.33371 21.0002 5.33371H21.3335V1.00025C21.3336 0.800745 21.3934 0.605827 21.505 0.440488C21.6167 0.27515 21.7752 0.146928 21.9602 0.0722623C22.145 -0.00215393 22.3479 -0.0195769 22.5427 0.022234C22.7375 0.0640449 22.9154 0.163178 23.0534 0.306885L31.7201 9.3068C32.0934 9.69354 32.0934 10.3068 31.7201 10.6935L23.0534 19.6934C22.7707 19.9881 22.3347 20.0789 21.9602 19.9281C21.7752 19.8534 21.6167 19.7252 21.505 19.5598C21.3934 19.3945 21.3336 19.1996 21.3335 19.0001V14.6669H19.7495C15.555 14.6669 11.7855 16.9974 9.91097 20.7481C9.73885 21.0948 9.37754 21.3162 8.99886 21.3162ZM21.0002 7.33369C15.4002 7.33369 10.763 11.5402 10.0843 16.96C12.5081 14.2562 15.9842 12.6669 19.7495 12.6669H22.3335C22.8855 12.6669 23.3335 13.1149 23.3335 13.6669V16.5201L29.612 10.0002L23.3335 3.48023V6.3337C23.3335 6.8857 22.8855 7.33369 22.3335 7.33369H21.0002Z" fill="#545454"/>
</g>
<defs>
<clipPath id="clip0_75_561">
<rect width="32" height="32" fill="white"/>
</clipPath>
</defs>
</svg>
