<svg width="32" height="32" viewBox="0 0 32 32" fill="none" xmlns="http://www.w3.org/2000/svg">
<path d="M29.3334 17.333C28.9798 17.333 28.6406 17.4735 28.3906 17.7235C28.1405 17.9736 28 18.3127 28 18.6663V24.2837C27.999 25.2689 27.6071 26.2135 26.9105 26.9101C26.2138 27.6068 25.2693 27.9986 24.284 27.9997H7.71604C6.73082 27.9986 5.78626 27.6068 5.0896 26.9101C4.39295 26.2135 4.0011 25.2689 4.00004 24.2837V18.6663C4.00004 18.3127 3.85957 17.9736 3.60952 17.7235C3.35947 17.4735 3.02033 17.333 2.66671 17.333C2.31309 17.333 1.97395 17.4735 1.7239 17.7235C1.47385 17.9736 1.33337 18.3127 1.33337 18.6663V24.2837C1.33514 25.9759 2.00816 27.5984 3.20476 28.795C4.40136 29.9916 6.02379 30.6646 7.71604 30.6663H24.284C25.9763 30.6646 27.5987 29.9916 28.7953 28.795C29.9919 27.5984 30.6649 25.9759 30.6667 24.2837V18.6663C30.6667 18.3127 30.5262 17.9736 30.2762 17.7235C30.0261 17.4735 29.687 17.333 29.3334 17.333Z" fill="black"/>
<path d="M8.94272 11.6092L14.6667 5.88521V22.6665C14.6667 23.0202 14.8072 23.3593 15.0572 23.6094C15.3073 23.8594 15.6464 23.9999 16.0001 23.9999C16.3537 23.9999 16.6928 23.8594 16.9429 23.6094C17.1929 23.3593 17.3334 23.0202 17.3334 22.6665V5.88521L23.0574 11.6092C23.3089 11.8521 23.6457 11.9865 23.9953 11.9834C24.3449 11.9804 24.6793 11.8402 24.9265 11.593C25.1737 11.3458 25.3139 11.0113 25.317 10.6617C25.32 10.3122 25.1856 9.97535 24.9427 9.72388L16.9427 1.72388C16.6927 1.47392 16.3536 1.3335 16.0001 1.3335C15.6465 1.3335 15.3074 1.47392 15.0574 1.72388L7.05739 9.72388C6.81451 9.97535 6.68012 10.3122 6.68316 10.6617C6.68619 11.0113 6.82642 11.3458 7.07363 11.593C7.32084 11.8402 7.65526 11.9804 8.00485 11.9834C8.35445 11.9865 8.69125 11.8521 8.94272 11.6092Z" fill="black"/>
</svg>
