<svg width="20" height="20" viewBox="0 0 20 20" fill="none" xmlns="http://www.w3.org/2000/svg">
<path d="M13.0664 5.70129C13.0664 5.87316 13.0547 6.04504 13.0332 6.21496C13.043 6.1466 13.0527 6.07629 13.0605 6.00793C13.0137 6.34777 12.9238 6.67785 12.791 6.99426C12.8164 6.93176 12.8437 6.86926 12.8691 6.80676C12.7383 7.11535 12.5684 7.40441 12.3633 7.66808L12.4863 7.50988C12.2871 7.76574 12.0566 7.99426 11.8027 8.19347L11.9609 8.07043C11.6953 8.27551 11.4062 8.44543 11.0996 8.57629C11.1621 8.5509 11.2246 8.52355 11.2871 8.49816C10.9707 8.63097 10.6406 8.72082 10.3008 8.76769C10.3691 8.75793 10.4395 8.74816 10.5078 8.74035C10.166 8.78527 9.82031 8.78527 9.47851 8.74035C9.54687 8.75011 9.61719 8.75988 9.68554 8.76769C9.3457 8.72082 9.01562 8.63097 8.69922 8.49816C8.76172 8.52355 8.82422 8.5509 8.88672 8.57629C8.57812 8.44543 8.28906 8.27551 8.02539 8.07043L8.18359 8.19347C7.92773 7.99426 7.69922 7.76379 7.5 7.50988L7.62304 7.66808C7.41797 7.40246 7.24804 7.1134 7.11719 6.80676C7.14258 6.86926 7.16992 6.93176 7.19531 6.99426C7.0625 6.67785 6.97265 6.34777 6.92578 6.00793C6.93555 6.07629 6.94531 6.1466 6.95312 6.21496C6.9082 5.87316 6.9082 5.52746 6.95312 5.18566C6.94336 5.25402 6.93359 5.32433 6.92578 5.39269C6.97265 5.05285 7.0625 4.72277 7.19531 4.40636C7.16992 4.46886 7.14258 4.53136 7.11719 4.59386C7.24804 4.28527 7.41797 3.99621 7.62304 3.73254L7.5 3.89074C7.69922 3.63488 7.92969 3.40636 8.18359 3.20715L8.02539 3.33019C8.29101 3.12511 8.58008 2.95519 8.88672 2.82433C8.82422 2.84972 8.76172 2.87707 8.69922 2.90246C9.01562 2.76965 9.3457 2.6798 9.68554 2.63293C9.61719 2.64269 9.54687 2.65246 9.47851 2.66027C9.82031 2.61535 10.166 2.61535 10.5078 2.66027C10.4395 2.65051 10.3691 2.64074 10.3008 2.63293C10.6406 2.6798 10.9707 2.76965 11.2871 2.90246C11.2246 2.87707 11.1621 2.84972 11.0996 2.82433C11.4082 2.95519 11.6973 3.12511 11.9609 3.33019L11.8027 3.20715C12.0586 3.40636 12.2871 3.63683 12.4863 3.89074L12.3633 3.73254C12.5684 3.99816 12.7383 4.28722 12.8691 4.59386C12.8437 4.53136 12.8164 4.46886 12.791 4.40636C12.9238 4.72277 13.0137 5.05285 13.0605 5.39269C13.0508 5.32433 13.041 5.25402 13.0332 5.18566C13.0547 5.35754 13.0664 5.52941 13.0664 5.70129C13.0684 6.10949 13.4238 6.50207 13.8477 6.48254C14.2695 6.46301 14.6309 6.13879 14.6289 5.70129C14.625 4.77355 14.3477 3.82433 13.8047 3.06652C13.6543 2.85754 13.4941 2.65246 13.3145 2.46691C13.1348 2.28137 12.9336 2.11926 12.7285 1.96301C12.3652 1.68761 11.959 1.48449 11.5312 1.32824C9.77148 0.679802 7.64648 1.25402 6.45508 2.70519C6.29492 2.90051 6.14062 3.10558 6.00976 3.32238C5.87695 3.54308 5.77344 3.77746 5.67578 4.01574C5.49414 4.45715 5.40234 4.9259 5.36719 5.40051C5.29492 6.33215 5.53906 7.30285 6.02344 8.09972C6.49219 8.86926 7.19922 9.52746 8.02539 9.8966C8.26172 10.0021 8.50195 10.0997 8.75 10.17C9.00586 10.2403 9.26758 10.2794 9.52929 10.3107C10.002 10.3673 10.4824 10.3282 10.9492 10.2364C12.7559 9.87902 14.2715 8.32629 14.5547 6.50207C14.5957 6.23644 14.627 5.97082 14.6289 5.70129C14.6309 5.29308 14.2676 4.90051 13.8477 4.92004C13.4238 4.93761 13.0684 5.26183 13.0664 5.70129Z" fill="#545454"/>
<path d="M4.3457 9.19157C3.5625 9.80094 2.99219 10.6291 2.62891 11.5451C2.36719 12.2052 2.26758 12.9201 2.26758 13.6271V16.465C2.26758 16.5822 2.26367 16.6994 2.27344 16.8166C2.32422 17.3849 2.54492 17.9279 2.96875 18.3224C3.42383 18.7482 4.00195 18.9533 4.61914 18.9533H15.125C15.2539 18.9533 15.3848 18.9572 15.5137 18.9513C16.084 18.9259 16.6211 18.7033 17.0332 18.3048C17.4453 17.9064 17.6602 17.3791 17.7109 16.8166C17.7402 16.4865 17.7168 16.1466 17.7168 15.8166V14.1662C17.7168 13.7814 17.7305 13.3908 17.6914 13.008C17.5879 12.0099 17.252 11.0412 16.6426 10.2365C16.3535 9.85563 16.0391 9.50602 15.6621 9.20915C15.4922 9.07633 15.3359 8.98063 15.1094 8.98063C14.918 8.98063 14.6895 9.06657 14.5566 9.20915C14.4199 9.35758 14.3184 9.5529 14.3281 9.76188C14.3359 9.95524 14.3984 10.1896 14.5566 10.3146C14.8711 10.5607 15.1523 10.8459 15.3984 11.1603L15.2754 11.0021C15.5254 11.3283 15.7344 11.6857 15.8945 12.0646C15.8691 12.0021 15.8418 11.9396 15.8164 11.8771C15.9746 12.258 16.082 12.6545 16.1406 13.0627C16.1309 12.9943 16.1211 12.924 16.1133 12.8556C16.1816 13.3634 16.1582 13.8849 16.1582 14.3966V16.3009C16.1582 16.4904 16.168 16.6838 16.1465 16.8713C16.1563 16.8029 16.166 16.7326 16.1738 16.6642C16.1563 16.7951 16.123 16.9201 16.0742 17.0431C16.0996 16.9806 16.127 16.9181 16.1523 16.8556C16.1016 16.9748 16.0391 17.0841 15.9609 17.1877L16.084 17.0295C16 17.1369 15.9043 17.2326 15.7969 17.3166L15.9551 17.1935C15.8516 17.2697 15.7422 17.3341 15.623 17.3849C15.6855 17.3595 15.748 17.3322 15.8105 17.3068C15.6875 17.3556 15.5625 17.3888 15.4316 17.4064C15.5 17.3966 15.5703 17.3869 15.6387 17.3791C15.4922 17.3966 15.3418 17.3908 15.1934 17.3908H5.83594C5.4082 17.3908 4.97852 17.3927 4.55078 17.3908C4.48438 17.3908 4.41992 17.3869 4.35352 17.3791C4.42188 17.3888 4.49219 17.3986 4.56055 17.4064C4.42969 17.3888 4.30469 17.3556 4.18164 17.3068C4.24414 17.3322 4.30664 17.3595 4.36914 17.3849C4.25 17.3341 4.14063 17.2716 4.03711 17.1935L4.19531 17.3166C4.08789 17.2326 3.99219 17.1369 3.9082 17.0295L4.03125 17.1877C3.95508 17.0841 3.89063 16.9748 3.83984 16.8556C3.86524 16.9181 3.89258 16.9806 3.91797 17.0431C3.86914 16.9201 3.83594 16.7951 3.81836 16.6642C3.82813 16.7326 3.83789 16.8029 3.8457 16.8713C3.82617 16.7111 3.83399 16.549 3.83399 16.3888V13.7209C3.83399 13.4318 3.83984 13.1427 3.87891 12.8556C3.86914 12.924 3.85938 12.9943 3.85156 13.0627C3.9082 12.6545 4.01758 12.258 4.17578 11.8771C4.15039 11.9396 4.12305 12.0021 4.09766 12.0646C4.25781 11.6857 4.4668 11.3283 4.7168 11.0021L4.59375 11.1603C4.8457 10.8361 5.13477 10.547 5.45703 10.297C5.60352 10.1838 5.68555 9.92008 5.68555 9.7443C5.68555 9.5529 5.59961 9.32438 5.45703 9.19157C5.30859 9.05485 5.11328 8.95329 4.9043 8.96305C4.83594 8.97282 4.76563 8.98258 4.69727 8.9904C4.55859 9.0275 4.44336 9.09391 4.3457 9.19157Z" fill="#545454"/>
</svg>
